<?xml version="1.0" encoding="utf-8"?>
<!DOCTYPE svg PUBLIC "-//W3C//DTD SVG 1.0//EN" "http://www.w3.org/TR/2001/REC-SVG-20010904/DTD/svg10.dtd">
<svg version="1.0" xmlns="http://www.w3.org/2000/svg" width="2048px" height="2048px" viewBox="0 0 2048 2048" preserveAspectRatio="xMidYMid meet">
 <g fill="#4b4b4b">
  <path d="M1863.5 1685.1 c-5.2 -4 -9.7 -9.6 -13.3 -16.6 -1.1 -2.2 -4.3 -6.8 -7.1 -10.2 -3.3 -4.1 -5.5 -7.9 -6.2 -11 -0.7 -2.7 -2.7 -7.7 -4.4 -11.3 -1.8 -3.6 -4 -8.9 -4.8 -11.7 -0.9 -2.9 -3.4 -9 -5.5 -13.5 -17.2 -35.7 -23.9 -48.7 -30.3 -58.3 -8.1 -12.1 -15 -26.7 -22.8 -48 -11.8 -31.9 -22.3 -56 -57.1 -131 -9 -19.2 -20.5 -44.7 -25.7 -56.5 -5.1 -11.8 -10 -22 -10.8 -22.6 -0.8 -0.6 -1.5 -1.7 -1.5 -2.3 0 -0.7 5.6 -12.1 12.3 -25.4 6.8 -13.3 14.1 -28 16.3 -32.7 2.1 -4.7 4.6 -9.6 5.6 -10.9 1.6 -2.2 9.8 -18.7 9.8 -19.8 0 -0.3 2.3 -5.2 5 -10.9 2.8 -5.7 5 -10.9 5 -11.4 0 -0.5 1.1 -3.3 2.4 -6.2 1.3 -2.9 4.1 -9.8 6.1 -15.3 2.1 -5.5 4.6 -11.8 5.6 -14.1 1.1 -2.2 1.9 -4.4 1.9 -4.8 0 -1.1 8.9 -21.3 13.1 -29.7 l3.8 -7.7 -2.9 -4.5 c-1.6 -2.6 -4.1 -7.7 -5.5 -11.4 -3 -7.6 -12.2 -30.7 -13.5 -33.8 -0.5 -1.1 -2.7 -6.3 -5 -11.5 -2.3 -5.2 -5.7 -13.8 -7.5 -19 -1.9 -5.2 -5.7 -14.4 -8.5 -20.5 -6.7 -14.5 -6.3 -13.4 -10.8 -25.5 -6.5 -17.1 -15.8 -38.9 -20.7 -48.5 -2.5 -4.9 -4.8 -10.4 -5.1 -12.2 -0.4 -1.9 -1.3 -3.3 -2.5 -3.6 -1.1 -0.3 -2.8 -2.6 -4 -5.2 -1.5 -3.3 -3 -5.1 -5 -5.8 -3.5 -1.4 -3.9 -2.4 -4.9 -11.2 -0.5 -5 -1.9 -9.5 -4.8 -15.5 -2.2 -4.7 -7.6 -16.6 -12 -26.5 -4.4 -9.9 -9.5 -21.4 -11.5 -25.5 -1.9 -4.1 -6.8 -15.1 -11 -24.5 -4.1 -9.3 -9.4 -21 -11.7 -26 -6.8 -14.4 -8.4 -18 -16.8 -37 -4.4 -9.9 -9.9 -22 -12.2 -27 -5.7 -12.1 -8 -17.1 -13.5 -29.5 -7.6 -17 -8.6 -19.1 -12.5 -27.5 -2.1 -4.4 -4.9 -10.5 -6.2 -13.5 -1.4 -3 -3.5 -7.5 -4.6 -10 -1.1 -2.5 -3.8 -8.5 -6 -13.5 -2.2 -4.9 -5.9 -13 -8.2 -18 -2.3 -4.9 -8 -17.5 -12.7 -28 -16.2 -36.4 -17.4 -38.5 -23.8 -43.3 -3.2 -2.3 -6.4 -4.2 -7.1 -4.2 -0.8 0 -1.4 -0.9 -1.4 -2 0 -1.3 0.7 -2 2 -2 4 0 12.6 4.2 17.1 8.3 4.5 4.1 6.5 8.3 60.4 129.2 30.6 68.8 68.8 154.8 84.8 191.2 16.1 36.5 29.4 66.2 29.7 66.2 0.3 0 2.3 -3.8 4.4 -8.5 2.2 -4.7 5.5 -10.6 7.3 -13.2 4.6 -6.6 7 -11.9 7.7 -17.4 0.4 -2.6 3.1 -9.8 6 -16 6.5 -13.9 13.6 -31.2 21.5 -52.8 6.1 -16.7 12.3 -32.1 22.4 -55 7.7 -17.5 14 -35 24.7 -68 5.1 -15.7 11.9 -35.5 15.2 -44 3.3 -8.5 7.1 -18.6 8.3 -22.5 5.4 -16.5 21 -59.7 24.5 -67.7 2.1 -4.9 5.6 -11.7 7.9 -15.1 2.2 -3.4 4.5 -7.6 5.1 -9.2 l1 -3 14.4 1.1 c11.5 0.8 15 1.4 17.1 3 5.1 3.6 9 5.4 12 5.4 5.4 0 21 3.7 25.6 6 2.4 1.2 6.2 3.7 8.4 5.4 9.3 7.3 24.4 15.4 34.1 18.1 8.4 2.5 14.3 5.7 18.9 10.4 2.7 2.9 4.7 4.1 6.7 4.1 4.4 0 13.1 3.7 17.5 7.5 4.4 3.8 8 10.9 9 18 0.7 5.5 -1.7 12.7 -12.5 36.5 -15.4 34.3 -18.6 42.1 -26.2 64.5 -15.9 47.1 -29.7 80.8 -53.7 131 -10 20.9 -17.7 38.4 -31.2 71.2 -7.2 17.4 -20.1 46.4 -24.8 55.8 -1.4 2.7 -3.9 9.3 -5.5 14.5 -5.4 17.1 -11.8 32.1 -26.1 60.5 -7.8 15.4 -16 32.7 -18.3 38.4 -2.3 5.7 -5.9 12.5 -7.9 15.2 -2.1 2.6 -6.3 9.4 -9.3 15.1 -3 5.6 -6.3 11.5 -7.4 13 -1.6 2.4 -1.7 3.3 -0.8 6.8 2 7.3 5 13.2 12 23.6 10.6 15.6 13 20.2 15.1 28.2 2.2 8.5 9.7 26.2 17.5 41.2 8.5 16.2 19.4 39.6 30 64.1 11.3 26.3 25.5 55 35 70.4 16.9 27.7 21.3 36.1 31.9 61 12.5 29.1 23.8 51.7 30 59.7 3.7 4.7 9.3 14.7 16.1 28.5 5.8 11.7 13.5 26.1 17.1 32 3.6 5.9 8.6 14.2 11.1 18.3 2.6 4.4 4.8 9.4 5.2 12 0.4 2.5 1.3 8 2 12.3 1.4 7.6 1.3 8 -0.8 12 -4.4 8.4 -9.5 13.9 -13.7 15.2 -18.2 5.4 -33.9 20.3 -39.4 37.6 -1 3.1 -1.8 3.7 -6.4 5.1 -2.8 0.9 -6.6 1.9 -8.3 2.3 -4.1 0.8 -7.1 4.1 -7.9 8.7 -0.6 3.1 -1.4 4 -5.3 5.9 -6.1 3 -15.5 3.2 -19.6 0.6 -2.7 -1.8 -2.8 -1.8 -5.3 0.5 -1.4 1.2 -5.6 6.7 -9.4 12 -6 8.4 -10.1 12.4 -16.4 16.1 -0.6 0.3 -3.3 -1.2 -6 -3.2z"/>
  <path d="M1018.5 1654.4 c-3.7 -2.9 -11.4 -6.4 -12.9 -5.8 -3 1.2 -19.3 -6.1 -21.3 -9.5 -2.7 -4.4 -5.1 -5.1 -14.9 -4.1 -4.9 0.5 -10.8 1.6 -13 2.4 l-4.1 1.4 -6.8 -5.8 -6.8 -5.8 -11 -1.6 c-10.3 -1.6 -24.1 -5.5 -25.7 -7.3 -0.4 -0.4 -3.8 -7.3 -7.6 -15.3 l-6.9 -14.5 0 -14 c0 -12.3 0.4 -15.4 3 -25.5 2.9 -11.2 3 -12 2.7 -31.5 -0.2 -12 0.2 -22.6 0.8 -26.5 1 -5.2 0.9 -10.2 -0.4 -25 -1.3 -14.7 -1.6 -31.1 -1.6 -82.5 0.1 -63.4 -0.3 -73.7 -3.5 -94.2 -0.8 -5.1 -1.5 -14.8 -1.5 -21.5 0 -6.7 -0.5 -17 -1.2 -22.8 -1 -9.1 -0.9 -12.4 0.5 -22.6 0.9 -6.5 1.7 -14 1.7 -16.5 0 -6 -4.7 -34.2 -11.3 -67.4 -5.4 -27 -5.4 -27 -11.7 -39.4 -5.6 -11.2 -14 -31.2 -14 -33.3 0 -3.5 -11.3 -30.6 -21.5 -51.2 -13.3 -27.2 -17.1 -36.6 -23.5 -58 -2.3 -7.7 -5.4 -16.4 -6.9 -19.5 -1.6 -3.1 -5.2 -11.5 -8 -18.8 -2.9 -7.2 -7.2 -16 -9.5 -19.5 -6.1 -9.1 -17.2 -34.1 -18.6 -41.9 -3.1 -17.9 -6.7 -27 -16.7 -42.5 -11.1 -17.3 -18 -30.9 -22.8 -44.9 -4.8 -14 -12.6 -28.8 -19.1 -36.2 -2.8 -3.3 -5.3 -7.6 -7 -12.4 -1.5 -4.1 -5.1 -11.1 -8 -15.8 -2.9 -4.6 -6.5 -11.9 -7.9 -16.2 -2.5 -7.5 -5.1 -11.6 -14 -22.4 -3.1 -3.8 -4.9 -7.5 -7.5 -15.5 -2 -6.4 -7.5 -18.7 -14 -31.5 -5.9 -11.5 -12.4 -24.7 -14.4 -29.3 l-3.8 -8.3 2.1 -6.9 c4 -13.2 14.1 -24.3 26 -28.6 3.5 -1.3 6.9 -4.1 14.1 -11.7 l9.6 -10 6.3 -0.5 c5.8 -0.4 7 -1 14 -5.9 12.2 -8.8 14.5 -9.8 23.4 -9.8 6.5 0.1 7.8 -0.2 8.3 -1.7 0.8 -2.7 6.1 -7.6 10.7 -9.9 3.1 -1.6 5.4 -2 9.6 -1.7 6.6 0.5 10.1 2.7 15.6 9.9 2.1 2.7 5.7 6.4 8.1 8.1 2.8 2 5.7 5.5 7.8 9.2 1.9 3.4 9.4 15.6 16.6 27.1 14.1 22.5 25.9 45.5 39.9 78 10 23.1 13.9 30.5 22.2 41.5 4.8 6.3 6.5 9.6 8.4 16.2 4.6 15.8 11.4 31.1 22.8 50.8 7.8 13.4 15.5 29.8 20.3 43 2.1 5.8 10.4 23.6 18.4 39.5 8 16 16.2 33.1 18.4 38 5.1 12.1 14 37.3 18.1 51.8 1.9 6.5 4.6 14.4 6 17.4 2.5 5.6 2.5 5.6 4.6 3.7 4.1 -3.7 10.7 -14.1 18.4 -28.9 4.3 -8.2 12.1 -22.6 17.5 -32 10.7 -18.8 29.8 -56.5 33.6 -66.2 1.3 -3.5 4.4 -13.6 6.9 -22.5 5.6 -20.4 10.2 -34 15 -44.3 6.3 -13.6 11.4 -26.2 18.4 -46 8.6 -24 14.9 -39.4 27.1 -66.5 18.3 -40.2 30.6 -65.5 36.8 -75.3 11 -17.5 24.2 -34 30.5 -38.2 2.6 -1.7 16.9 -4.5 22.7 -4.5 3.8 0 10.6 2.8 13.1 5.3 1.5 1.5 11.1 5.7 25.5 11.1 7.2 2.7 12.4 6.8 14.9 11.7 2.5 4.7 22.5 16.1 34 19.3 6.9 2 12.7 5.6 15.2 9.6 1 1.6 4.7 4.8 8.3 7.2 7.7 5.1 13.8 11 16.4 15.9 l1.8 3.5 -9.4 17.4 c-25.1 46.3 -46.1 88.4 -56.7 113.9 -5.6 13.3 -16.8 41.1 -23.6 58.6 -2.6 6.6 -9.4 21 -15 32 -5.7 11 -12.3 24.7 -14.8 30.5 -2.5 5.8 -10.9 24.5 -18.7 41.5 -13.1 28.6 -24.2 53.5 -36.8 82.5 -2.7 6.3 -8.8 19.8 -13.5 30 -8 17.4 -16.7 39.2 -32.7 81.5 -7.1 18.7 -13.8 39.5 -19.4 60 -2.8 10.4 -4.3 13.8 -11.1 25 -4.3 7.2 -9.2 15 -11 17.5 -3.2 4.5 -3.2 4.6 -6.3 34 -4.6 42.4 -5.2 50.3 -5.2 71.6 0 16.2 0.5 22.4 3 39.5 2.8 18.9 3 22.4 3 48.4 0 15.4 0.5 36.8 1 47.5 0.6 10.7 2.1 40.4 3.5 66 5.2 98.3 5.2 99.7 1.4 123.8 -1.1 7.2 -1.9 17.3 -1.9 24.6 l0 12.4 -4.7 2 c-2.7 1.1 -6.5 2.5 -8.5 3.2 -2.1 0.6 -4.1 1.6 -4.4 2.2 -0.4 0.6 -5.9 0.9 -14.8 0.7 -7.7 -0.1 -15 0 -16.1 0.4 -1.2 0.4 -2.8 0.1 -4 -0.9z"/>
  <path d="M491.5 1648.7 c-1.6 -0.7 -6.5 -2.9 -10.8 -5.1 -9.7 -4.8 -13.3 -9 -34 -39.5 -13.8 -20.4 -16.1 -23.3 -26.2 -32.5 -18.2 -16.8 -23 -22 -33.1 -36.3 -20.3 -28.6 -32.4 -44.5 -67.4 -88.3 -12.9 -16.2 -26.5 -33.3 -30.1 -38 -3.7 -4.7 -12.8 -15.2 -20.4 -23.5 -22.3 -24.4 -28.6 -32.8 -46 -61.5 -23.5 -38.6 -61.3 -90.4 -95.2 -130.2 -9.9 -11.8 -10.3 -12.3 -7.7 -12.6 2.5 -0.3 7.4 3 7.4 5.1 0 0.5 1.1 1.8 2.5 2.9 1.4 1.1 2.5 2.7 2.5 3.6 0 1 1 2.2 2.3 2.7 1.2 0.6 2.3 2 2.5 3.1 0.2 1.2 1.2 2.4 2.3 2.7 1 0.3 2.1 1.2 2.4 2 0.4 0.8 2.6 3.6 5 6.3 2.4 2.7 11.6 14.1 20.5 25.4 24.4 31.2 44.5 59.9 65.8 94 15 24.1 21.3 32.2 46.7 59.7 5.5 5.9 14.4 16.2 19.7 22.8 5.3 6.6 14 17.5 19.5 24.1 41.4 51.1 55.4 69.2 78.1 100.4 12.2 16.9 14.9 19.8 27.9 30.7 12.7 10.6 16 14.3 26.8 30.3 25.2 37 29.6 42.3 38.6 46.3 5 2.1 6.9 3.5 6.9 4.8 0 2.2 -2.1 2.4 -6.5 0.6z"/>
  <path d="M1339 1592.1 c-1.6 -3.1 -1.2 -5.1 1 -5.1 1.6 0 2 0.7 2 3.5 0 3.9 -1.4 4.6 -3 1.6z"/>
  <path d="M1337.7 1578.3 c-1.2 -1.1 -0.7 -8.6 0.7 -12.3 4.7 -12.2 6.3 -15.4 11.5 -23 8.4 -12.4 11.5 -18.3 18.1 -34 6.4 -15.4 11.4 -24.4 19.1 -34.7 2.8 -3.6 6 -8.9 7.1 -11.7 1.1 -2.8 5.3 -11.4 9.3 -19.1 4.1 -7.7 8.2 -16.9 9.1 -20.5 1.1 -4.2 3.4 -8.8 6.4 -13 8.4 -11.7 15.8 -24.9 20 -35.5 2.2 -5.7 4 -11 4 -11.7 0 -0.8 1.1 -2.9 2.5 -4.8 1.4 -1.9 2.5 -3.9 2.5 -4.6 0 -0.6 1.1 -2.7 2.4 -4.6 1.3 -2 2.9 -5.3 3.6 -7.4 0.7 -2.2 4.1 -10.5 7.6 -18.6 3.4 -8 7 -17.5 8 -21 1 -3.5 3.7 -9.2 6.2 -12.8 2.4 -3.6 10.9 -19.7 18.9 -35.7 8 -16.1 14.9 -29.3 15.4 -29.3 0.5 0 0.9 1.6 0.9 3.5 0 1.9 -0.4 3.5 -1 3.5 -0.5 0 -1 0.7 -1 1.5 0 2.5 -2.3 6.5 -3.7 6.5 -0.8 0 -1.3 1.2 -1.3 3 0 3.6 -16.1 36.8 -24.6 50.9 -3.4 5.8 -6.7 13 -8.5 18.6 -1.6 5.1 -4 11.9 -5.5 15.1 -1.4 3.2 -3.2 7.4 -4 9.2 -0.8 1.7 -2.1 4.7 -2.9 6.6 -0.8 1.9 -1.5 3.8 -1.5 4.3 0 0.5 -2.7 6.2 -6 12.7 -3.3 6.5 -6 12.3 -6 12.9 0 2 -5.3 15 -9.1 22.4 -2 3.9 -7.1 12.3 -11.2 18.6 -4.2 6.3 -7.9 12.7 -8.2 14.3 -1.4 6 -6 17 -10 23.8 -4.5 7.9 -6.3 11.5 -9.5 19.5 -1.1 3 -3.4 7.1 -4.9 9 -6.6 8.4 -15.1 23.4 -19.6 34.6 -6.1 15.4 -11.4 25.7 -19.2 37.3 -5.6 8.3 -8 13.2 -11.6 24 -1 3 -2.5 4 -4 2.5z"/>
  <path d="M1510.9 1219.8 c3 -7.6 8.2 -17.8 9.1 -17.8 1.6 0 1.2 6.7 -0.5 8.4 -0.8 0.8 -1.5 2.4 -1.5 3.5 0 1.2 -0.4 2.1 -0.9 2.1 -0.5 0 -1.1 1.4 -1.4 3 -0.5 2.4 -1.2 3 -3.2 3 -2.1 0 -2.3 -0.3 -1.6 -2.2z"/>
  <path d="M112.2 1175.5 l-3.3 -4 2.7 -0.3 c3.5 -0.5 4.6 0.8 4.2 4.9 l-0.3 3.4 -3.3 -4z"/>
  <path d="M100 1162.5 l-3.4 -3.5 3.7 0 c3.6 0 3.7 0.1 3.7 3.5 0 1.9 -0.1 3.5 -0.3 3.5 -0.2 0 -1.8 -1.6 -3.7 -3.5z"/>
  <path d="M1540 1159.4 c0 -1.2 8.5 -14.4 9.2 -14.4 0.5 0 0.8 1.6 0.8 3.5 0 1.9 -0.4 3.5 -1 3.5 -0.5 0 -1 0.7 -1 1.5 0 0.8 -0.7 1.5 -1.5 1.5 -0.9 0 -1.5 0.9 -1.5 2.5 0 2 -0.5 2.5 -2.5 2.5 -1.4 0 -2.5 -0.3 -2.5 -0.6z"/>
  <path d="M76.7 1140.2 c-2.4 -2.6 -2.2 -6.2 0.3 -6.2 1.7 0 2 0.7 2 4 0 4.6 -0.1 4.7 -2.3 2.2z"/>
  <path d="M363 882.5 c0 -1.9 0.5 -3.5 1 -3.5 0.6 0 1 -0.7 1 -1.5 0 -0.8 0.5 -1.5 1 -1.5 0.6 0 1 -0.5 1 -1.2 0 -1.2 3.7 -6.3 18.5 -24.9 10.1 -12.5 28.5 -38.1 34.1 -47.1 2 -3.4 3.5 -4.8 5.1 -4.8 2 0 2.1 0.3 1.2 2.6 -2.6 6.9 -21.6 33.9 -39.9 56.9 -7.5 9.4 -15.5 19.6 -17.8 22.8 -2.4 3.1 -4.5 5.7 -4.7 5.7 -0.3 0 -0.5 -1.6 -0.5 -3.5z"/>
  <path d="M428 787.6 c0 -2.4 1.4 -5.6 4.9 -10.8 5 -7.5 6.5 -8.8 18.6 -16.9 3.9 -2.6 8.8 -7 11 -9.7 8.9 -11.2 29 -41 54.7 -81.2 5.8 -9 11.8 -17 15.8 -21 3.6 -3.6 8.5 -9.7 10.8 -13.7 4 -6.8 8.5 -11.2 14.5 -14.3 1.8 -0.9 4.3 -4.3 7.4 -9.9 2.6 -4.7 7.6 -13.1 11.2 -18.6 3.7 -5.5 8 -12.6 9.6 -15.7 1.7 -3.2 3.3 -5.8 3.7 -5.8 0.4 0 1.2 0.9 1.8 2 1.5 2.9 -5.3 17 -15.7 32.5 -4.4 6.6 -9.7 15.1 -11.7 18.8 -2.9 5.1 -4.8 7.3 -7.7 8.7 -5.3 2.7 -9.9 7.6 -13.9 14.6 -1.8 3.2 -6 8.5 -9.2 11.6 -4.2 4 -12.4 15.4 -27.7 38.5 -26.6 40.2 -42.7 62.9 -47.7 67.2 -2 1.8 -6.7 5.2 -10.3 7.6 -7.5 4.8 -12 9.1 -15.9 15.2 -1.5 2.4 -3 4.3 -3.4 4.3 -0.5 0 -0.8 -1.5 -0.8 -3.4z"/>
 </g>
 <g fill="#ff4e7a">
  <path d="M1470.5 1673.7 c-6.1 -1.5 -8.4 -2.7 -13.8 -7.7 -8.3 -7.7 -11.2 -10 -12.4 -10 -0.7 0 -1.3 -0.4 -1.3 -0.9 0 -0.5 -1.3 -1.2 -3 -1.6 -1.6 -0.4 -3.2 -1.1 -3.5 -1.6 -0.4 -0.5 -1.7 -0.9 -3.1 -0.9 -1.3 0 -2.4 -0.4 -2.4 -0.8 0 -0.4 -2.2 -1.6 -5 -2.7 -2.7 -1.1 -5 -2.3 -5 -2.7 0 -0.4 -0.7 -0.8 -1.6 -0.8 -2.1 0 -8.8 -5.9 -13.4 -11.8 -1.4 -1.8 -3 -3.2 -3.7 -3.2 -0.6 0 -1.3 -0.3 -1.5 -0.7 -0.9 -2.2 -8.4 -4.3 -15.1 -4.3 -7 0 -7.3 -0.1 -10 -3.5 l-2.8 -3.5 -8.9 0 c-7.3 0 -9 -0.3 -9 -1.5 0 -0.8 -0.3 -1.5 -0.7 -1.5 -1.3 0 -6.3 -4.6 -6.3 -5.7 0 -0.6 -0.6 -1.6 -1.4 -2.2 -3.4 -2.8 -7.9 -14.6 -8.6 -22.1 -0.6 -6.5 -0.4 -8.3 1.8 -14 1.3 -3.6 2.7 -7.6 3.2 -9 0.4 -1.4 3.6 -6.8 7.1 -12 8 -11.8 13.3 -22 19.4 -37.5 4.5 -11.2 13 -26.2 19.6 -34.6 1.5 -1.9 3.8 -6 4.9 -9 3.2 -8 5 -11.6 9.5 -19.5 4 -6.8 8.6 -17.8 10 -23.8 0.3 -1.6 4 -8 8.2 -14.3 4.1 -6.3 9.2 -14.7 11.2 -18.6 3.8 -7.4 9.1 -20.4 9.1 -22.4 0 -0.6 2.7 -6.4 6 -12.9 3.3 -6.5 6 -12.2 6 -12.7 0 -0.5 0.7 -2.4 1.5 -4.3 0.8 -1.9 2.1 -4.9 2.9 -6.6 0.8 -1.8 2.6 -6 4 -9.2 1.5 -3.2 3.9 -10 5.5 -15.1 1.8 -5.6 5.1 -12.8 8.5 -18.6 4.7 -7.7 24.6 -46.8 24.6 -48.3 0 -0.2 2.5 -5.7 5.5 -12.1 7.5 -15.8 8.6 -18.3 14 -31 7 -16.4 16.4 -34.7 24.2 -47 11 -17.4 14.2 -23.2 18.3 -33.2 5.1 -12.2 5.7 -15.3 3.5 -20.1 -2.6 -5.8 -3.1 -7.3 -4.9 -13.3 -0.9 -3.1 -3.4 -8.3 -5.6 -11.5 -2.4 -3.6 -4 -7.1 -4 -8.9 -0.1 -4.4 -1.7 -11 -4.2 -16.3 -2.6 -5.6 -9.9 -17.6 -11 -18 -0.4 -0.2 -0.8 -0.9 -0.8 -1.7 0 -0.7 -1.1 -3.7 -2.4 -6.6 -1.3 -3 -2.9 -7.9 -3.6 -10.9 -0.7 -3 -2.4 -7.2 -3.7 -9.3 -2.2 -3.5 -11.4 -22.5 -13.2 -27.2 -1.8 -4.8 -4.1 -12.4 -4.1 -13.8 0 -1.4 -4.2 -15.1 -6 -19.2 -0.4 -1.1 -1.6 -4.7 -2.5 -8 -1 -3.3 -2.1 -6.4 -2.6 -6.9 -0.5 -0.6 -0.9 -2 -0.9 -3.2 0 -1.3 -0.4 -2.6 -1 -2.9 -0.5 -0.3 -1 -1.7 -1 -2.9 0 -1.3 -0.7 -2.9 -1.5 -3.6 -0.8 -0.7 -1.5 -1.8 -1.5 -2.5 0 -1.3 -2.9 -7.7 -3.9 -8.5 -0.3 -0.3 -1.2 -1.8 -2 -3.5 -0.7 -1.6 -1.7 -3.7 -2.2 -4.5 -0.5 -0.8 -1.2 -2.2 -1.5 -3 -1.5 -4 -7.7 -16.2 -9.8 -19.2 -1.3 -1.9 -3.1 -5.3 -4.1 -7.6 -1.1 -2.3 -2.2 -4.2 -2.7 -4.2 -0.4 0 -0.8 -0.9 -0.8 -2 0 -1.1 -0.3 -2 -0.7 -2 -0.5 0 -1.7 -1.8 -2.7 -4 -1.1 -2.2 -2.3 -4 -2.8 -4 -0.4 0 -0.8 -0.9 -0.8 -2 0 -2.1 -9.4 -20.5 -14.9 -29 -0.9 -1.4 -2.2 -3.4 -2.9 -4.5 -0.7 -1.1 -1.5 -2.8 -1.8 -3.7 -0.4 -1 -0.9 -1.8 -1.3 -1.8 -0.4 0 -1.5 -2.2 -2.6 -5 -1.1 -2.7 -2.3 -5 -2.7 -5 -0.4 0 -0.8 -0.7 -0.8 -1.5 0 -0.9 -1 -3.2 -2.3 -5.3 -1.3 -2 -3.1 -5.3 -4 -7.2 -1.9 -3.7 -3.9 -7.2 -4.7 -8 -1 -1 -3.1 -4.5 -3.6 -6.2 -0.4 -1 -1 -1.8 -1.5 -1.8 -0.5 0 -0.9 -0.6 -0.9 -1.3 0 -0.7 -1.1 -2.4 -2.5 -3.9 -1.4 -1.5 -2.5 -3.2 -2.5 -3.8 0 -0.6 -1.1 -2.8 -2.5 -5 -1.4 -2.2 -2.5 -4.4 -2.5 -5 0 -0.6 -1 -2.7 -2.3 -4.8 -1.2 -2 -2.9 -5 -3.7 -6.7 -0.8 -1.6 -2.1 -3.6 -2.7 -4.3 -0.7 -0.7 -1.3 -2 -1.3 -2.8 0 -0.8 -0.4 -2.2 -0.9 -3.2 -0.9 -1.7 -4.3 -9.1 -7.5 -16.4 -0.9 -2 -2.1 -4 -2.6 -4.3 -0.6 -0.3 -1 -1.9 -1 -3.5 0 -1.6 -0.4 -3.2 -1 -3.5 -0.5 -0.3 -1 -1.5 -1 -2.7 0 -1.1 -0.7 -3.6 -1.6 -5.6 -0.9 -2.1 -2.1 -4.8 -2.6 -6.2 -0.6 -1.4 -1.7 -3.7 -2.4 -5.2 -0.8 -1.4 -1.4 -3.6 -1.4 -4.7 0 -1.2 -0.4 -2.1 -1 -2.1 -0.5 0 -1 -1.1 -1 -2.4 0 -1.4 -0.4 -2.7 -0.9 -3.1 -0.5 -0.3 -1.2 -1.9 -1.6 -3.5 -0.4 -1.7 -1.1 -3 -1.6 -3 -0.5 0 -0.9 -1.1 -0.9 -2.5 0 -1.4 -0.4 -2.5 -1 -2.5 -0.5 0 -1 -0.9 -1 -2 0 -1.1 -0.7 -2.3 -1.5 -2.6 -0.8 -0.4 -1.5 -1.7 -1.5 -3 0 -2.2 -0.7 -4.1 -3.2 -8.4 -1.1 -2 -1.3 -2.7 -3.3 -9.2 -0.9 -3.2 -2.1 -6 -2.6 -6.4 -0.5 -0.3 -0.9 -3.8 -0.9 -7.9 0 -4.1 -0.4 -7.6 -0.9 -7.9 -0.5 -0.3 -1.1 -2.3 -1.4 -4.3 -0.4 -3.7 -2.1 -9 -3.8 -12.5 -0.5 -1 -0.9 -3.6 -0.9 -5.7 0 -2.2 -0.5 -5.2 -1.2 -6.7 -1.2 -2.5 -0.9 -2.9 6.6 -10 4.3 -4.1 8.2 -7.4 8.7 -7.4 0.5 0 1.6 -1.1 2.5 -2.5 0.9 -1.4 2.2 -2.5 2.9 -2.5 0.7 0 2.6 -0.7 4.1 -1.5 1.6 -0.8 3.8 -1.5 4.8 -1.5 1.1 0 5.6 -2.2 10 -4.8 5.9 -3.5 9.6 -5.1 13.6 -5.6 14.3 -1.9 36 -7.7 36 -9.8 0 -0.4 0.9 -0.8 2 -0.8 1 0 2.3 -0.6 2.7 -1.3 1.5 -2.2 5.7 -3.7 15.7 -5.2 6.8 -1.1 12.4 -2.7 17.5 -5.1 7.9 -3.6 16.3 -5.1 22.4 -4 1.9 0.4 6.1 2.5 9.2 4.9 6.4 4.7 7.6 6.9 23.8 43.2 4.7 10.5 10.4 23.1 12.7 28 2.3 5 6 13.1 8.2 18 2.2 5 5 11.3 6.3 14 1.2 2.8 3.2 7.3 4.5 10 1.2 2.8 3.9 8.6 6 13 3.9 8.4 4.9 10.5 12.5 27.5 5.5 12.4 7.8 17.4 13.5 29.5 2.3 5 7.8 17.1 12.2 27 8.4 19 10 22.6 16.8 37 2.3 5 7.6 16.7 11.7 26 4.2 9.4 9.1 20.4 11 24.5 2 4.1 7.1 15.6 11.5 25.5 4.4 9.9 9.3 20.9 11 24.5 5.5 11.8 6.1 13.5 5.9 17.5 -0.2 6 1.5 9.9 4.8 11.2 2 0.7 3.5 2.5 4.9 5.4 1.1 2.4 2.9 5.4 4.1 6.6 1.1 1.2 3 4.6 4.2 7.5 1.1 2.9 3.4 7.8 5.1 10.8 3.2 5.8 12.2 27.2 19 45 4.5 12.1 4.1 11 10.8 25.5 2.8 6.1 6.6 15.3 8.5 20.5 1.8 5.2 5.2 13.8 7.5 19 2.3 5.2 4.5 10.4 5 11.5 1.3 3.1 10.5 26.2 13.5 33.8 1.4 3.8 4.2 9.3 6.1 12.2 1.9 3 3.4 6 3.4 6.6 0 0.7 -2 5.1 -4.4 9.8 -4.4 8.8 -13.6 29.4 -13.6 30.7 0 0.4 -0.8 2.6 -1.9 4.8 -1 2.3 -3.5 8.6 -5.6 14.1 -2 5.5 -4.8 12.4 -6.1 15.3 -1.3 2.9 -2.4 5.7 -2.4 6.2 0 0.5 -2.2 5.7 -5 11.4 -2.7 5.7 -5 10.7 -5 11 0 1.4 -9.3 19.6 -10.6 20.7 -0.8 0.6 -1.4 1.7 -1.4 2.3 0 0.6 -7.2 15.6 -16.1 33.2 -12.6 25 -16.5 32.1 -17.8 31.7 -4.2 -1.1 -16 13.5 -24.3 30.2 -5.2 10.3 -6.7 13.8 -13.9 32.5 -8.3 21.8 -9.5 25.1 -11.9 34 -1.2 4.7 -4.6 13.5 -7.5 19.5 -2.9 6.1 -5.9 12.6 -6.6 14.5 -1.6 4.2 -3.5 7.6 -7 12.1 -1.4 1.9 -4.6 9.5 -7.1 16.9 -7.7 22.8 -9 26.3 -12.5 33.4 -1.8 3.8 -3.3 7.5 -3.3 8.3 0 0.7 -0.4 1.3 -0.9 1.3 -0.5 0 -1.3 1 -1.7 2.3 -0.4 1.2 -3.7 8.5 -7.4 16.2 -6.5 13.4 -8.3 18.3 -10.9 30.5 -1.3 5.6 -4 12 -5.2 12 -0.4 0 -0.9 0.8 -1.3 1.8 -0.5 1.7 -2.6 5.2 -3.6 6.2 -0.6 0.6 -2.6 4.2 -4.9 8.5 -0.9 1.6 -1.9 3.2 -2.2 3.5 -1.2 1 -5.9 10.1 -5.9 11.5 0 0.8 -1.1 2.6 -2.5 4.1 -1.4 1.5 -2.5 3.1 -2.5 3.6 0 0.5 -1.1 2.4 -2.5 4.2 -1.4 1.8 -2.5 3.8 -2.5 4.4 0 0.7 -0.4 1.2 -0.9 1.2 -0.5 0 -1.3 1 -1.7 2.3 -0.4 1.2 -0.9 2.4 -1.3 2.7 -1.7 1.4 -13.1 24.3 -13.1 26.3 0 0.9 -0.4 1.8 -0.9 2.2 -0.5 0.3 -3.3 5.3 -6.3 11.2 -6.3 12.8 -13.4 20.6 -19.6 21.7 -2 0.3 -4.6 0.8 -5.7 1 -1.1 0.2 -4.2 -0.1 -7 -0.7z"/>
  <path d="M497.5 1650.1 c-1.6 -0.5 -6 -2.2 -9.6 -3.9 -8.9 -4 -13.5 -9.6 -38.4 -46.2 -10.8 -16 -14.1 -19.7 -26.8 -30.3 -13 -10.9 -15.7 -13.8 -27.9 -30.7 -22.7 -31.2 -36.7 -49.3 -78.1 -100.4 -5.5 -6.6 -14.2 -17.5 -19.5 -24.1 -5.3 -6.6 -14.2 -16.9 -19.7 -22.8 -25.4 -27.5 -31.7 -35.6 -46.7 -59.7 -41.8 -67.1 -99.2 -140.1 -142.4 -181 -11.3 -10.6 -12.3 -11.9 -13.8 -17.1 -1.6 -5.8 -5.1 -9.8 -14.6 -16.7 -2.6 -1.8 -5.3 -5.8 -9.5 -13.8 -5.9 -11.1 -6 -11.5 -5.9 -19.1 0.1 -6 0.7 -9.4 2.8 -14.8 1.6 -3.8 3.7 -10.3 4.8 -14.4 4 -15.2 12.9 -31.2 24.8 -44.6 7.9 -8.9 12.7 -15.9 17.8 -26.2 3.4 -6.6 4.4 -9.9 5.2 -16.9 1.2 -11 3.9 -16.7 12.5 -26.5 18.1 -20.6 18.8 -21.6 35.5 -51.6 9.1 -16.4 17.9 -31.8 19.4 -34.3 10.4 -16.4 34.1 -49.9 42.6 -60 2.5 -3 6.1 -7.7 8 -10.3 3.5 -4.8 11.8 -15.6 14.5 -18.9 0.7 -0.9 2.2 -2.9 3.2 -4.5 0.9 -1.5 2 -3 2.4 -3.3 1.3 -1 20.9 -28.9 20.9 -29.7 0 -0.4 1.1 -2 2.4 -3.4 3.4 -3.7 14.6 -21 14.6 -22.5 0 -0.8 0.4 -1.4 0.9 -1.4 0.5 0 1.3 -1 1.7 -2.2 0.3 -1.2 1.5 -3.1 2.6 -4.2 2.1 -2.2 18.1 -27.6 21.3 -33.9 1.1 -2 2.3 -3.7 2.7 -3.7 0.5 0 0.8 -0.7 0.8 -1.5 0 -0.8 0.5 -1.5 1 -1.5 0.6 0 1 -0.9 1 -2 0 -1.1 0.4 -2 1 -2 0.5 0 1.7 -1.7 2.7 -3.7 1 -2.1 2.7 -4.7 3.9 -5.8 1.1 -1.1 2.3 -2.4 2.5 -3 0.2 -0.5 2.5 -4.2 5.2 -8.2 2.6 -3.9 4.7 -7.6 4.7 -8.2 0 -0.6 0.3 -1.1 0.8 -1.1 0.4 0 1.6 -1.6 2.6 -3.5 1.1 -1.9 2.3 -3.5 2.8 -3.5 0.4 0 0.8 -0.4 0.8 -0.9 0 -0.6 1.1 -2.2 2.5 -3.7 1.4 -1.5 2.5 -3.1 2.5 -3.5 0 -0.4 1.1 -2 2.5 -3.5 1.4 -1.5 2.5 -3.3 2.5 -4 0 -0.8 0.4 -1.4 0.9 -1.4 0.9 0 9.1 -12.1 9.1 -13.5 0 -0.4 1.1 -1.8 2.5 -3.1 1.4 -1.3 2.5 -2.6 2.5 -2.9 0 -0.4 0.6 -1.3 1.3 -2 2.9 -3.3 3.7 -4.5 3.7 -5.5 0 -0.5 0.5 -1 1 -1 0.6 0 1 -0.6 1 -1.3 0 -0.7 0.8 -2 1.8 -2.8 3.2 -3 13.2 -16.3 13.2 -17.7 0 -0.5 1.7 -2.7 3.8 -4.9 2 -2.1 6.4 -7 9.7 -10.8 3.3 -3.8 6.6 -7.4 7.3 -8.1 0.6 -0.7 1.2 -1.5 1.2 -1.9 0 -0.4 0.6 -1.3 1.3 -2 2.9 -3.3 3.7 -4.5 3.7 -5.5 0 -0.5 0.6 -1 1.3 -1 0.6 0 3.9 -2.5 7.2 -5.6 8.2 -7.5 9.4 -8.6 14 -12 2.2 -1.6 4.2 -3.1 4.5 -3.4 0.3 -0.3 1.5 -1.1 2.7 -1.7 2.7 -1.6 19.9 -1.8 20.8 -0.3 0.3 0.6 1.3 1 2.2 1 0.9 0 4.9 3.4 8.9 7.5 4 4.1 8 7.5 8.8 7.5 0.9 0 1.6 0.4 1.6 0.9 0 0.5 1.7 1.1 3.8 1.4 2 0.3 7.1 1.3 11.2 2.2 4.1 0.9 9 1.8 10.8 2.2 1.7 0.3 3.2 0.9 3.2 1.4 0 0.5 0.6 0.9 1.4 0.9 0.8 0 3.1 1.9 5.2 4.1 2.2 2.3 7.1 7.4 10.9 11.4 l7 7.2 9.1 1.1 c5 0.7 10.7 1.2 12.7 1.2 2 0 3.7 0.4 3.7 0.8 0 0.5 2 1.7 4.5 2.8 2.5 1 4.5 2.2 4.5 2.6 0 0.4 0.7 0.8 1.5 0.8 0.8 0 1.5 0.4 1.5 0.9 0 0.5 0.8 1.2 1.9 1.6 1 0.3 3.4 2 5.2 3.8 1.9 1.8 5.5 4.9 8.1 6.9 l4.6 3.8 -0.2 6.2 c-0.2 7 -2 10.9 -12.6 26.8 -3.1 4.7 -7.8 12.4 -10.3 17.1 -3.1 5.6 -5.6 9 -7.4 9.9 -6 3.1 -10.5 7.5 -14.5 14.3 -2.3 4 -7.2 10.1 -10.8 13.7 -4 4 -10 12 -15.8 21 -25.7 40.2 -45.8 69.9 -54.7 81.2 -2.3 2.8 -7.7 7.5 -12.5 10.6 -13.2 8.8 -18.8 15.8 -25 30.9 -4.4 10.8 -20.2 34.1 -39.9 58.8 -13.6 17 -17.9 22.9 -28.2 38.9 -17.5 27.2 -20 31.6 -31.5 56.5 -1.9 4.1 -12.8 21.4 -24.3 38.5 -35.1 52.5 -45 70.3 -46.7 84.3 -0.6 4.7 -0.3 5.7 2.9 11.5 2 3.5 4.5 7.4 5.6 8.8 24 30.5 30 37.8 35.2 42.9 1.4 1.4 3 3.3 3.5 4.2 1.8 3.2 15.2 18.9 22 25.6 2.3 2.4 4.4 4.7 4.6 5.2 0.5 1.7 9 11.3 17.1 19.3 4.2 4.3 7.7 8.2 7.7 8.7 0 0.5 3.2 4.2 7 8.2 3.9 4.1 7 7.7 7 8.1 0 0.5 0.5 0.8 1 0.8 1 0 9 7.6 9 8.5 0 0.3 0.9 1.6 2.1 2.8 1.1 1.2 3 4.1 4.1 6.4 1.2 2.4 2.5 4.3 3 4.3 0.4 0 0.8 0.7 0.8 1.5 0 0.8 0.3 1.5 0.8 1.5 0.4 0 2.1 2 3.7 4.5 1.7 2.4 3.3 4.5 3.6 4.5 0.3 0 2.1 2.2 4 5 1.9 2.7 3.7 5 4.2 5 0.4 0 0.7 0.6 0.7 1.4 0 0.8 0.3 1.6 0.8 1.8 0.6 0.2 7.6 8.7 14.2 17.2 0.8 1 3 3.4 4.8 5.4 1.8 1.9 4.9 5.5 7 8.1 2 2.5 4 4.8 4.5 4.9 0.4 0.2 0.7 0.8 0.7 1.4 0 0.6 1 2 2.3 3.2 1.2 1.1 3.6 3.9 5.2 6 1.6 2.1 5.5 6.5 8.6 9.6 3.1 3.2 5.8 6.2 6 6.8 0.6 1.6 8.6 10.9 15.8 18.2 3.5 3.6 8.1 8.9 10.4 11.9 3.6 4.9 13.8 16.1 22.3 24.7 1.7 1.7 3.3 3.6 3.5 4.2 0.5 1.4 7.1 9.1 13.8 16.1 2.8 2.9 5.1 5.7 5.1 6.1 0 0.4 1.1 2 2.5 3.6 1.4 1.6 2.8 3.7 3.1 4.7 0.3 0.9 1 1.7 1.5 1.7 0.5 0 0.9 0.5 0.9 1 0 1 7.6 12.7 9.1 14 0.3 0.3 2.6 3.4 5.3 7 7.4 10.3 10.5 14.4 11.6 15.7 0.5 0.7 1 1.5 1 1.8 0 1.1 8.4 12.5 9.2 12.5 0.4 0 0.8 0.5 0.8 1.1 0 0.6 0.6 1.6 1.3 2.3 0.6 0.7 2.6 3 4.2 5.1 1.7 2.1 3.8 4.7 4.8 5.7 0.9 1 1.7 2.1 1.7 2.5 0 0.3 1.1 2.1 2.5 3.9 1.4 1.8 2.5 3.6 2.5 4.1 0 0.4 1.3 2.2 2.8 4 1.6 1.8 4 4.8 5.3 6.7 1.3 2 2.7 3.6 3.2 3.6 0.4 0 0.7 0.5 0.7 1.1 0 0.6 0.6 1.7 1.3 2.4 2.6 3 3.7 4.4 3.7 5 0 0.3 1.1 1.8 2.5 3.3 1.4 1.5 2.5 3 2.5 3.5 0 1 8.2 13.1 9.3 13.5 0.4 0.2 0.7 1 0.7 1.8 0 0.8 0.5 1.4 1 1.4 0.6 0 1 0.7 1 1.5 0 0.9 0.7 1.8 1.5 2.1 0.8 0.4 1.5 1.1 1.5 1.6 0 1 6.7 10.8 8.1 11.8 0.4 0.3 1.7 2.5 3 5 3.3 6.6 10.3 16.4 14.2 19.9 0.9 0.8 1.7 2.3 1.7 3.3 0 1 0.5 1.8 1 1.8 0.6 0 1 0.9 1 2.1 0 1.1 0.7 2.7 1.5 3.5 0.8 0.9 1.5 3.1 1.5 4.9 0 1.9 0.5 3.7 1 4 0.6 0.3 1 4.4 1 9.1 0 9.9 -2 13.4 -7.5 13.4 -1.7 0 -4 0.7 -5.1 1.5 -1 0.8 -2.7 1.5 -3.6 1.5 -2 0 -7.8 3.2 -7.8 4.3 0 0.4 -0.7 0.7 -1.5 0.7 -0.8 0 -1.5 0.5 -1.5 1 0 0.6 -0.8 1 -1.8 1 -1 0 -2.3 0.5 -3 1.2 -0.6 0.6 -3.3 1.5 -5.9 1.9 -22.1 3.9 -24.1 4.1 -59.3 4.3 l-35.5 0.1 -4.5 2.6 c-8.5 4.8 -9.5 5.4 -10.1 6.3 -0.9 1.2 -16.6 1.7 -20.4 0.7z"/>
 </g>
</svg>